<svg xmlns="http://www.w3.org/2000/svg" version="1.1" xmlns:xlink="http://www.w3.org/1999/xlink" xmlns:svgjs="http://svgjs.com/svgjs" width="1440" height="250" preserveAspectRatio="none" viewBox="0 0 1440 250"><g mask="url(&quot;#SvgjsMask1024&quot;)" fill="none"><rect width="1440" height="250" x="0" y="0" fill="rgba(187, 187, 187, 1)"></rect><path d="M1 250L251 0L288.5 0L38.5 250z" fill="url(#SvgjsLinearGradient1025)"></path><path d="M277.6 250L527.6 0L608.6 0L358.6 250z" fill="url(#SvgjsLinearGradient1025)"></path><path d="M477.20000000000005 250L727.2 0L1076.7 0L826.7 250z" fill="url(#SvgjsLinearGradient1025)"></path><path d="M737.8000000000001 250L987.8000000000001 0L1184.3000000000002 0L934.3000000000001 250z" fill="url(#SvgjsLinearGradient1025)"></path><path d="M1428 250L1178 0L999.5 0L1249.5 250z" fill="url(#SvgjsLinearGradient1026)"></path><path d="M1195.4 250L945.4000000000001 0L760.9000000000001 0L1010.9000000000001 250z" fill="url(#SvgjsLinearGradient1026)"></path><path d="M962.8 250L712.8 0L528.3 0L778.3 250z" fill="url(#SvgjsLinearGradient1026)"></path><path d="M692.1999999999999 250L442.19999999999993 0L209.69999999999993 0L459.69999999999993 250z" fill="url(#SvgjsLinearGradient1026)"></path><path d="M1258.8674250356453 250L1440 68.86742503564523L1440 250z" fill="url(#SvgjsLinearGradient1025)"></path><path d="M0 250L181.13257496435477 250L 0 68.86742503564523z" fill="url(#SvgjsLinearGradient1026)"></path></g><defs><mask id="SvgjsMask1024"><rect width="1440" height="250" fill="#ffffff"></rect></mask><linearGradient x1="0%" y1="100%" x2="100%" y2="0%" id="SvgjsLinearGradient1025"><stop stop-color="rgba(103, 103, 104, 0.5)" offset="0"></stop><stop stop-opacity="0" stop-color="rgba(103, 103, 104, 0.5)" offset="0.66"></stop></linearGradient><linearGradient x1="100%" y1="100%" x2="0%" y2="0%" id="SvgjsLinearGradient1026"><stop stop-color="rgba(103, 103, 104, 0.5)" offset="0"></stop><stop stop-opacity="0" stop-color="rgba(103, 103, 104, 0.5)" offset="0.66"></stop></linearGradient></defs></svg>