<?xml version="1.0" standalone="no"?><svg xmlns="http://www.w3.org/2000/svg" viewBox="0 0 1440 320"><path fill="#0099ff" fill-opacity="1" d="M0,64L30,96C60,128,120,192,180,229.3C240,267,300,277,360,277.3C420,277,480,267,540,261.3C600,256,660,256,720,256C780,256,840,256,900,218.7C960,181,1020,107,1080,74.7C1140,43,1200,53,1260,69.3C1320,85,1380,107,1410,117.3L1440,128L1440,320L1410,320C1380,320,1320,320,1260,320C1200,320,1140,320,1080,320C1020,320,960,320,900,320C840,320,780,320,720,320C660,320,600,320,540,320C480,320,420,320,360,320C300,320,240,320,180,320C120,320,60,320,30,320L0,320Z"></path></svg>